<svg width="548" height="569" viewBox="0 0 548 569" fill="none" xmlns="http://www.w3.org/2000/svg">
<g clip-path="url(#clip0_401_2)">
<path d="M272.427 19.1925C295.014 16.7468 307.627 7.25189 329.575 1.5452C336.456 -0.243878 350.736 0.0127541 350.736 0.0127541C350.736 0.0127541 361.003 0.0264357 366.825 1.54519C385.79 8.67854 404.329 19.1925 423.72 25.3068C433.735 28.5678 445.882 27.9564 453.553 36.1088C462.716 45.6879 462.929 59.547 461.437 71.5718C459.519 81.1509 453.766 91.3414 443.111 93.7871C432.883 96.2328 422.655 97.8633 413.066 101.939C397.51 107.85 379.507 120.008 366.825 121.301C352.513 123.551 360.007 110.5 360.007 110.5L363.19 115.004L359.729 119.542L374.542 118.01C374.542 118.01 372.426 125.161 341.15 121.505C317.408 115.004 293.097 106.831 269.018 107.239C244.086 107.646 219.368 113.353 196.78 123.34C147.77 141.886 108.135 179.999 86.187 225.652C74.254 251.128 66.7958 278.643 65.7304 306.565C64.878 354.46 80.0074 403.171 110.692 441.283C125.395 461.664 145.213 478.377 166.522 492.236C211.697 522.603 269.444 533.813 323.995 527.495C390.478 519.954 452.7 483.472 489.991 430.278C514.922 397.056 532.694 357.11 535.891 316.551C539.726 284.349 533.973 251.74 523.531 221.168C515.434 196.1 497.236 173.273 480.828 152.484C472.518 141.479 462.076 132.511 452.274 122.932C471.878 136.587 488.073 154.115 501.711 173.273C526.429 206.698 540.919 246.441 546.247 286.999C547.525 312.475 548.378 338.359 542.198 363.224C531.757 414.38 503.629 461.868 463.994 497.535C444.603 516.489 420.737 530.145 396.445 542.577C373.005 553.583 347.647 561.531 321.651 564.589C268.591 573.149 212.762 566.423 163.751 544.819C153.523 539.927 143.721 534.221 133.706 529.126C94.2844 505.687 60.4032 473.078 37.3895 434.558C16.7199 397.464 1.37745 356.906 0.0989194 314.921C0.312009 294.54 -1.17962 274.159 2.86908 253.982C13.7366 192.635 45.7 134.549 94.2843 92.9719C120.494 69.3299 151.818 51.5983 185.06 38.7583C212.762 27.3449 242.594 22.2497 272.427 19.1925Z" fill="#4B99CC"/>
<path d="M150.496 298.784C145.419 298.784 140.939 297.851 137.056 295.984C133.173 294.043 130.149 291.131 127.984 287.248C125.819 283.291 124.736 278.325 124.736 272.352V238.192H138.736V270.448C138.736 275.824 139.931 279.856 142.32 282.544C144.784 285.157 148.256 286.464 152.736 286.464C156.021 286.464 158.859 285.792 161.248 284.448C163.712 283.104 165.616 281.088 166.96 278.4C168.379 275.712 169.088 272.389 169.088 268.432V238.192H183.088V298H169.76V281.872L172.112 286.8C170.096 290.683 167.147 293.669 163.264 295.76C159.381 297.776 155.125 298.784 150.496 298.784ZM192.458 298V238.192H205.786V254.656L204.218 249.84C206.01 245.808 208.81 242.747 212.618 240.656C216.501 238.565 221.317 237.52 227.066 237.52V250.848C226.469 250.699 225.909 250.624 225.386 250.624C224.864 250.549 224.341 250.512 223.818 250.512C218.517 250.512 214.298 252.08 211.162 255.216C208.026 258.277 206.458 262.869 206.458 268.992V298H192.458ZM256.316 298.784C250.193 298.784 244.743 297.477 239.964 294.864C235.185 292.176 231.415 288.517 228.652 283.888C225.889 279.259 224.508 273.995 224.508 268.096C224.508 262.123 225.889 256.859 228.652 252.304C231.415 247.675 235.185 244.053 239.964 241.44C244.743 238.827 250.193 237.52 256.316 237.52C262.513 237.52 268.001 238.827 272.78 241.44C277.633 244.053 281.404 247.637 284.092 252.192C286.855 256.747 288.236 262.048 288.236 268.096C288.236 273.995 286.855 279.259 284.092 283.888C281.404 288.517 277.633 292.176 272.78 294.864C268.001 297.477 262.513 298.784 256.316 298.784ZM256.316 286.8C259.751 286.8 262.812 286.053 265.5 284.56C268.188 283.067 270.279 280.901 271.772 278.064C273.34 275.227 274.124 271.904 274.124 268.096C274.124 264.213 273.34 260.891 271.772 258.128C270.279 255.291 268.188 253.125 265.5 251.632C262.812 250.139 259.788 249.392 256.428 249.392C252.993 249.392 249.932 250.139 247.244 251.632C244.631 253.125 242.54 255.291 240.972 258.128C239.404 260.891 238.62 264.213 238.62 268.096C238.62 271.904 239.404 275.227 240.972 278.064C242.54 280.901 244.631 283.067 247.244 284.56C249.932 286.053 252.956 286.8 256.316 286.8Z" fill="#4B99CC"/>
<path d="M224.432 394V327.92H198.448V315.6H264.976V327.92H238.992V394H224.432ZM299.275 394V381.904L298.491 379.328V358.16C298.491 354.053 297.259 350.88 294.795 348.64C292.331 346.325 288.598 345.168 283.595 345.168C280.235 345.168 276.912 345.691 273.627 346.736C270.416 347.781 267.691 349.237 265.451 351.104L259.963 340.912C263.174 338.448 266.982 336.619 271.387 335.424C275.867 334.155 280.496 333.52 285.275 333.52C293.936 333.52 300.619 335.611 305.323 339.792C310.102 343.899 312.491 350.283 312.491 358.944V394H299.275ZM280.459 394.784C275.979 394.784 272.059 394.037 268.699 392.544C265.339 390.976 262.726 388.848 260.859 386.16C259.067 383.397 258.171 380.299 258.171 376.864C258.171 373.504 258.955 370.48 260.523 367.792C262.166 365.104 264.816 362.976 268.475 361.408C272.134 359.84 276.987 359.056 283.035 359.056H300.395V368.352H284.043C279.264 368.352 276.054 369.136 274.411 370.704C272.768 372.197 271.947 374.064 271.947 376.304C271.947 378.843 272.955 380.859 274.971 382.352C276.987 383.845 279.787 384.592 283.371 384.592C286.806 384.592 289.867 383.808 292.555 382.24C295.318 380.672 297.296 378.357 298.491 375.296L300.843 383.696C299.499 387.205 297.072 389.931 293.563 391.872C290.128 393.813 285.76 394.784 280.459 394.784ZM339.978 394.784C334.976 394.784 330.16 394.149 325.53 392.88C320.976 391.536 317.354 389.931 314.666 388.064L320.042 377.424C322.73 379.141 325.941 380.56 329.674 381.68C333.408 382.8 337.141 383.36 340.874 383.36C345.28 383.36 348.453 382.763 350.394 381.568C352.41 380.373 353.418 378.768 353.418 376.752C353.418 375.109 352.746 373.877 351.402 373.056C350.058 372.16 348.304 371.488 346.138 371.04C343.973 370.592 341.546 370.181 338.858 369.808C336.245 369.435 333.594 368.949 330.906 368.352C328.293 367.68 325.904 366.747 323.738 365.552C321.573 364.283 319.818 362.603 318.474 360.512C317.13 358.421 316.458 355.659 316.458 352.224C316.458 348.416 317.541 345.131 319.706 342.368C321.872 339.531 324.896 337.365 328.778 335.872C332.736 334.304 337.402 333.52 342.778 333.52C346.81 333.52 350.88 333.968 354.986 334.864C359.093 335.76 362.49 337.029 365.178 338.672L359.802 349.312C356.965 347.595 354.09 346.437 351.178 345.84C348.341 345.168 345.504 344.832 342.666 344.832C338.41 344.832 335.237 345.467 333.146 346.736C331.13 348.005 330.122 349.611 330.122 351.552C330.122 353.344 330.794 354.688 332.138 355.584C333.482 356.48 335.237 357.189 337.402 357.712C339.568 358.235 341.957 358.683 344.57 359.056C347.258 359.355 349.909 359.84 352.522 360.512C355.136 361.184 357.525 362.117 359.69 363.312C361.93 364.432 363.722 366.037 365.066 368.128C366.41 370.219 367.082 372.944 367.082 376.304C367.082 380.037 365.962 383.285 363.722 386.048C361.557 388.811 358.458 390.976 354.426 392.544C350.394 394.037 345.578 394.784 339.978 394.784ZM381.603 380.672L381.939 363.088L413.187 334.192H429.987L403.443 360.848L396.051 367.008L381.603 380.672ZM370.179 394V310.896H384.179V394H370.179ZM415.315 394L393.475 367.008L402.323 355.808L432.339 394H415.315ZM449.043 394.784C444.04 394.784 439.224 394.149 434.595 392.88C430.04 391.536 426.419 389.931 423.731 388.064L429.107 377.424C431.795 379.141 435.005 380.56 438.739 381.68C442.472 382.8 446.205 383.36 449.939 383.36C454.344 383.36 457.517 382.763 459.459 381.568C461.475 380.373 462.483 378.768 462.483 376.752C462.483 375.109 461.811 373.877 460.467 373.056C459.123 372.16 457.368 371.488 455.203 371.04C453.037 370.592 450.611 370.181 447.923 369.808C445.309 369.435 442.659 368.949 439.971 368.352C437.357 367.68 434.968 366.747 432.803 365.552C430.637 364.283 428.883 362.603 427.539 360.512C426.195 358.421 425.523 355.659 425.523 352.224C425.523 348.416 426.605 345.131 428.771 342.368C430.936 339.531 433.96 337.365 437.843 335.872C441.8 334.304 446.467 333.52 451.843 333.52C455.875 333.52 459.944 333.968 464.051 334.864C468.157 335.76 471.555 337.029 474.243 338.672L468.867 349.312C466.029 347.595 463.155 346.437 460.243 345.84C457.405 345.168 454.568 344.832 451.731 344.832C447.475 344.832 444.301 345.467 442.211 346.736C440.195 348.005 439.187 349.611 439.187 351.552C439.187 353.344 439.859 354.688 441.203 355.584C442.547 356.48 444.301 357.189 446.467 357.712C448.632 358.235 451.021 358.683 453.635 359.056C456.323 359.355 458.973 359.84 461.587 360.512C464.2 361.184 466.589 362.117 468.755 363.312C470.995 364.432 472.787 366.037 474.131 368.128C475.475 370.219 476.147 372.944 476.147 376.304C476.147 380.037 475.027 383.285 472.787 386.048C470.621 388.811 467.523 390.976 463.491 392.544C459.459 394.037 454.643 394.784 449.043 394.784Z" fill="black"/>
</g>
<defs>
<clipPath id="clip0_401_2">
<rect width="548" height="569" fill="white"/>
</clipPath>
</defs>
</svg>
