<svg width="409" height="144" viewBox="0 0 409 144" fill="none" xmlns="http://www.w3.org/2000/svg">
<path d="M24.568 93.672C20.216 93.672 16.376 92.872 13.048 91.272C9.72 89.608 7.128 87.112 5.272 83.784C3.416 80.392 2.488 76.136 2.488 71.016V41.736H14.488V69.384C14.488 73.992 15.512 77.448 17.56 79.752C19.672 81.992 22.648 83.112 26.488 83.112C29.304 83.112 31.736 82.536 33.784 81.384C35.896 80.232 37.528 78.504 38.68 76.2C39.896 73.896 40.504 71.048 40.504 67.656V41.736H52.504V93H41.08V79.176L43.096 83.4C41.368 86.728 38.84 89.288 35.512 91.08C32.184 92.808 28.536 93.672 24.568 93.672ZM60.5357 93V41.736H71.9598V55.848L70.6158 51.72C72.1518 48.264 74.5518 45.64 77.8158 43.848C81.1438 42.056 85.2718 41.16 90.1998 41.16V52.584C89.6878 52.456 89.2078 52.392 88.7598 52.392C88.3118 52.328 87.8638 52.296 87.4158 52.296C82.8718 52.296 79.2558 53.64 76.5678 56.328C73.8798 58.952 72.5358 62.888 72.5358 68.136V93H60.5357Z" fill="#4B99CC"/>
<path d="M164.506 93V36.36H142.234V25.8H199.258V36.36H176.986V93H164.506ZM228.657 93V82.632L227.985 80.424V62.28C227.985 58.76 226.929 56.04 224.817 54.12C222.705 52.136 219.505 51.144 215.217 51.144C212.337 51.144 209.489 51.592 206.673 52.488C203.921 53.384 201.585 54.632 199.665 56.232L194.961 47.496C197.713 45.384 200.977 43.816 204.753 42.792C208.593 41.704 212.561 41.16 216.657 41.16C224.081 41.16 229.809 42.952 233.841 46.536C237.937 50.056 239.985 55.528 239.985 62.952V93H228.657ZM212.529 93.672C208.689 93.672 205.329 93.032 202.449 91.752C199.569 90.408 197.329 88.584 195.729 86.28C194.193 83.912 193.425 81.256 193.425 78.312C193.425 75.432 194.097 72.84 195.441 70.536C196.849 68.232 199.121 66.408 202.257 65.064C205.393 63.72 209.553 63.048 214.737 63.048H229.617V71.016H215.601C211.505 71.016 208.753 71.688 207.345 73.032C205.937 74.312 205.233 75.912 205.233 77.832C205.233 80.008 206.097 81.736 207.825 83.016C209.553 84.296 211.953 84.936 215.025 84.936C217.969 84.936 220.593 84.264 222.897 82.92C225.265 81.576 226.961 79.592 227.985 76.968L230.001 84.168C228.849 87.176 226.769 89.512 223.761 91.176C220.817 92.84 217.073 93.672 212.529 93.672ZM263.546 93.672C259.258 93.672 255.13 93.128 251.162 92.04C247.258 90.888 244.154 89.512 241.85 87.912L246.458 78.792C248.762 80.264 251.514 81.48 254.714 82.44C257.914 83.4 261.114 83.88 264.314 83.88C268.09 83.88 270.81 83.368 272.474 82.344C274.202 81.32 275.066 79.944 275.066 78.216C275.066 76.808 274.49 75.752 273.338 75.048C272.186 74.28 270.682 73.704 268.826 73.32C266.97 72.936 264.89 72.584 262.586 72.264C260.346 71.944 258.074 71.528 255.77 71.016C253.53 70.44 251.482 69.64 249.626 68.616C247.77 67.528 246.266 66.088 245.114 64.296C243.962 62.504 243.386 60.136 243.386 57.192C243.386 53.928 244.314 51.112 246.17 48.744C248.026 46.312 250.618 44.456 253.946 43.176C257.338 41.832 261.338 41.16 265.946 41.16C269.402 41.16 272.89 41.544 276.41 42.312C279.93 43.08 282.842 44.168 285.146 45.576L280.538 54.696C278.106 53.224 275.642 52.232 273.146 51.72C270.714 51.144 268.282 50.856 265.85 50.856C262.202 50.856 259.482 51.4 257.69 52.488C255.962 53.576 255.098 54.952 255.098 56.616C255.098 58.152 255.674 59.304 256.826 60.072C257.978 60.84 259.482 61.448 261.338 61.896C263.194 62.344 265.242 62.728 267.482 63.048C269.786 63.304 272.058 63.72 274.298 64.296C276.538 64.872 278.586 65.672 280.442 66.696C282.362 67.656 283.898 69.032 285.05 70.824C286.202 72.616 286.778 74.952 286.778 77.832C286.778 81.032 285.818 83.816 283.898 86.184C282.042 88.552 279.386 90.408 275.93 91.752C272.474 93.032 268.346 93.672 263.546 93.672ZM299.224 81.576L299.512 66.504L326.296 41.736H340.696L317.944 64.584L311.608 69.864L299.224 81.576ZM289.432 93V21.768H301.432V93H289.432ZM328.12 93L309.4 69.864L316.984 60.264L342.712 93H328.12ZM357.03 93.672C352.742 93.672 348.614 93.128 344.646 92.04C340.742 90.888 337.638 89.512 335.334 87.912L339.942 78.792C342.246 80.264 344.998 81.48 348.198 82.44C351.398 83.4 354.598 83.88 357.798 83.88C361.574 83.88 364.294 83.368 365.958 82.344C367.686 81.32 368.55 79.944 368.55 78.216C368.55 76.808 367.974 75.752 366.822 75.048C365.67 74.28 364.166 73.704 362.31 73.32C360.454 72.936 358.374 72.584 356.07 72.264C353.83 71.944 351.558 71.528 349.254 71.016C347.014 70.44 344.966 69.64 343.11 68.616C341.254 67.528 339.75 66.088 338.598 64.296C337.446 62.504 336.87 60.136 336.87 57.192C336.87 53.928 337.798 51.112 339.654 48.744C341.51 46.312 344.102 44.456 347.43 43.176C350.822 41.832 354.822 41.16 359.43 41.16C362.886 41.16 366.374 41.544 369.894 42.312C373.414 43.08 376.326 44.168 378.63 45.576L374.022 54.696C371.59 53.224 369.126 52.232 366.63 51.72C364.198 51.144 361.766 50.856 359.334 50.856C355.686 50.856 352.966 51.4 351.174 52.488C349.446 53.576 348.582 54.952 348.582 56.616C348.582 58.152 349.158 59.304 350.31 60.072C351.462 60.84 352.966 61.448 354.822 61.896C356.678 62.344 358.726 62.728 360.966 63.048C363.27 63.304 365.542 63.72 367.782 64.296C370.022 64.872 372.07 65.672 373.926 66.696C375.846 67.656 377.382 69.032 378.534 70.824C379.686 72.616 380.262 74.952 380.262 77.832C380.262 81.032 379.302 83.816 377.382 86.184C375.526 88.552 372.87 90.408 369.414 91.752C365.958 93.032 361.83 93.672 357.03 93.672Z" fill="white"/>
<g clip-path="url(#clip0_516_18)">
<path d="M117.856 42.754C119.917 42.5305 121.068 41.6627 123.071 41.1412C123.699 40.9777 125.001 41.0012 125.001 41.0012C125.001 41.0012 125.938 41.0024 126.469 41.1412C128.2 41.7931 129.891 42.754 131.661 43.3128C132.574 43.6108 133.683 43.5549 134.383 44.2999C135.219 45.1753 135.238 46.4419 135.102 47.5408C134.927 48.4162 134.402 49.3475 133.43 49.5711C132.497 49.7946 131.563 49.9436 130.688 50.3161C129.269 50.8562 127.627 51.9673 126.469 52.0855C125.164 52.2912 125.847 51.0984 125.847 51.0984L126.138 51.51L125.822 51.9248L127.174 51.7848C127.174 51.7848 126.98 52.4383 124.127 52.1042C121.961 51.51 119.742 50.7631 117.545 50.8004C115.271 50.8376 113.015 51.3591 110.954 52.2718C106.483 53.9668 102.866 57.4498 100.864 61.622C99.775 63.9502 99.0945 66.4647 98.9973 69.0165C98.9195 73.3935 100.3 77.8451 103.1 81.3282C104.441 83.1908 106.249 84.7181 108.194 85.9846C112.315 88.7599 117.584 89.7843 122.562 89.2069C128.628 88.5178 134.305 85.1837 137.707 80.3224C139.982 77.2864 141.603 73.6357 141.895 69.9291C142.245 66.9862 141.72 64.0061 140.767 61.2122C140.029 58.9212 138.368 56.8351 136.871 54.9353C136.113 53.9295 135.16 53.11 134.266 52.2346C136.055 53.4825 137.532 55.0843 138.777 56.8351C141.032 59.8898 142.354 63.5218 142.84 67.2284C142.957 69.5566 143.034 71.9221 142.471 74.1945C141.518 78.8696 138.952 83.2094 135.335 86.4689C133.566 88.2011 131.388 89.4491 129.172 90.5853C127.033 91.5911 124.72 92.3175 122.348 92.5968C117.507 93.3791 112.413 92.7645 107.941 90.7901C107.008 90.3431 106.113 89.8216 105.199 89.3559C101.603 87.214 98.5112 84.2338 96.4115 80.7135C94.5255 77.3236 93.1257 73.6171 93.009 69.7801C93.0285 67.9175 92.8924 66.055 93.2618 64.211C94.2533 58.6046 97.1697 53.2962 101.603 49.4965C103.994 47.3359 106.852 45.7155 109.885 44.5421C112.413 43.499 115.135 43.0334 117.856 42.754Z" fill="#4B99CC"/>
</g>
<defs>
<clipPath id="clip0_516_18">
<rect width="50" height="52" fill="white" transform="translate(93 41)"/>
</clipPath>
</defs>
</svg>
