<svg width="409" height="144" viewBox="0 0 409 144" fill="none" xmlns="http://www.w3.org/2000/svg">
<g clip-path="url(#clip0_509_15)">
<rect width="409" height="144" fill="white"/>
<path d="M31.568 93.672C27.216 93.672 23.376 92.872 20.048 91.272C16.72 89.608 14.128 87.112 12.272 83.784C10.416 80.392 9.488 76.136 9.488 71.016V41.736H21.488V69.384C21.488 73.992 22.512 77.448 24.56 79.752C26.672 81.992 29.648 83.112 33.488 83.112C36.304 83.112 38.736 82.536 40.784 81.384C42.896 80.232 44.528 78.504 45.68 76.2C46.896 73.896 47.504 71.048 47.504 67.656V41.736H59.504V93H48.08V79.176L50.096 83.4C48.368 86.728 45.84 89.288 42.512 91.08C39.184 92.808 35.536 93.672 31.568 93.672ZM67.5357 93V41.736H78.9598V55.848L77.6158 51.72C79.1518 48.264 81.5518 45.64 84.8158 43.848C88.1438 42.056 92.2718 41.16 97.1998 41.16V52.584C96.6878 52.456 96.2078 52.392 95.7598 52.392C95.3118 52.328 94.8638 52.296 94.4158 52.296C89.8718 52.296 86.2558 53.64 83.5678 56.328C80.8798 58.952 79.5358 62.888 79.5358 68.136V93H67.5357Z" fill="#4B99CC"/>
<path d="M171.506 93V36.36H149.234V25.8H206.258V36.36H183.986V93H171.506ZM235.657 93V82.632L234.985 80.424V62.28C234.985 58.76 233.929 56.04 231.817 54.12C229.705 52.136 226.505 51.144 222.217 51.144C219.337 51.144 216.489 51.592 213.673 52.488C210.921 53.384 208.585 54.632 206.665 56.232L201.961 47.496C204.713 45.384 207.977 43.816 211.753 42.792C215.593 41.704 219.561 41.16 223.657 41.16C231.081 41.16 236.809 42.952 240.841 46.536C244.937 50.056 246.985 55.528 246.985 62.952V93H235.657ZM219.529 93.672C215.689 93.672 212.329 93.032 209.449 91.752C206.569 90.408 204.329 88.584 202.729 86.28C201.193 83.912 200.425 81.256 200.425 78.312C200.425 75.432 201.097 72.84 202.441 70.536C203.849 68.232 206.121 66.408 209.257 65.064C212.393 63.72 216.553 63.048 221.737 63.048H236.617V71.016H222.601C218.505 71.016 215.753 71.688 214.345 73.032C212.937 74.312 212.233 75.912 212.233 77.832C212.233 80.008 213.097 81.736 214.825 83.016C216.553 84.296 218.953 84.936 222.025 84.936C224.969 84.936 227.593 84.264 229.897 82.92C232.265 81.576 233.961 79.592 234.985 76.968L237.001 84.168C235.849 87.176 233.769 89.512 230.761 91.176C227.817 92.84 224.073 93.672 219.529 93.672ZM270.546 93.672C266.258 93.672 262.13 93.128 258.162 92.04C254.258 90.888 251.154 89.512 248.85 87.912L253.458 78.792C255.762 80.264 258.514 81.48 261.714 82.44C264.914 83.4 268.114 83.88 271.314 83.88C275.09 83.88 277.81 83.368 279.474 82.344C281.202 81.32 282.066 79.944 282.066 78.216C282.066 76.808 281.49 75.752 280.338 75.048C279.186 74.28 277.682 73.704 275.826 73.32C273.97 72.936 271.89 72.584 269.586 72.264C267.346 71.944 265.074 71.528 262.77 71.016C260.53 70.44 258.482 69.64 256.626 68.616C254.77 67.528 253.266 66.088 252.114 64.296C250.962 62.504 250.386 60.136 250.386 57.192C250.386 53.928 251.314 51.112 253.17 48.744C255.026 46.312 257.618 44.456 260.946 43.176C264.338 41.832 268.338 41.16 272.946 41.16C276.402 41.16 279.89 41.544 283.41 42.312C286.93 43.08 289.842 44.168 292.146 45.576L287.538 54.696C285.106 53.224 282.642 52.232 280.146 51.72C277.714 51.144 275.282 50.856 272.85 50.856C269.202 50.856 266.482 51.4 264.69 52.488C262.962 53.576 262.098 54.952 262.098 56.616C262.098 58.152 262.674 59.304 263.826 60.072C264.978 60.84 266.482 61.448 268.338 61.896C270.194 62.344 272.242 62.728 274.482 63.048C276.786 63.304 279.058 63.72 281.298 64.296C283.538 64.872 285.586 65.672 287.442 66.696C289.362 67.656 290.898 69.032 292.05 70.824C293.202 72.616 293.778 74.952 293.778 77.832C293.778 81.032 292.818 83.816 290.898 86.184C289.042 88.552 286.386 90.408 282.93 91.752C279.474 93.032 275.346 93.672 270.546 93.672ZM306.224 81.576L306.512 66.504L333.296 41.736H347.696L324.944 64.584L318.608 69.864L306.224 81.576ZM296.432 93V21.768H308.432V93H296.432ZM335.12 93L316.4 69.864L323.984 60.264L349.712 93H335.12ZM364.03 93.672C359.742 93.672 355.614 93.128 351.646 92.04C347.742 90.888 344.638 89.512 342.334 87.912L346.942 78.792C349.246 80.264 351.998 81.48 355.198 82.44C358.398 83.4 361.598 83.88 364.798 83.88C368.574 83.88 371.294 83.368 372.958 82.344C374.686 81.32 375.55 79.944 375.55 78.216C375.55 76.808 374.974 75.752 373.822 75.048C372.67 74.28 371.166 73.704 369.31 73.32C367.454 72.936 365.374 72.584 363.07 72.264C360.83 71.944 358.558 71.528 356.254 71.016C354.014 70.44 351.966 69.64 350.11 68.616C348.254 67.528 346.75 66.088 345.598 64.296C344.446 62.504 343.87 60.136 343.87 57.192C343.87 53.928 344.798 51.112 346.654 48.744C348.51 46.312 351.102 44.456 354.43 43.176C357.822 41.832 361.822 41.16 366.43 41.16C369.886 41.16 373.374 41.544 376.894 42.312C380.414 43.08 383.326 44.168 385.63 45.576L381.022 54.696C378.59 53.224 376.126 52.232 373.63 51.72C371.198 51.144 368.766 50.856 366.334 50.856C362.686 50.856 359.966 51.4 358.174 52.488C356.446 53.576 355.582 54.952 355.582 56.616C355.582 58.152 356.158 59.304 357.31 60.072C358.462 60.84 359.966 61.448 361.822 61.896C363.678 62.344 365.726 62.728 367.966 63.048C370.27 63.304 372.542 63.72 374.782 64.296C377.022 64.872 379.07 65.672 380.926 66.696C382.846 67.656 384.382 69.032 385.534 70.824C386.686 72.616 387.262 74.952 387.262 77.832C387.262 81.032 386.302 83.816 384.382 86.184C382.526 88.552 379.87 90.408 376.414 91.752C372.958 93.032 368.83 93.672 364.03 93.672Z" fill="black"/>
<g clip-path="url(#clip1_509_15)">
<path d="M124.856 42.754C126.917 42.5305 128.068 41.6627 130.071 41.1412C130.699 40.9777 132.001 41.0012 132.001 41.0012C132.001 41.0012 132.938 41.0024 133.469 41.1412C135.2 41.7931 136.891 42.754 138.661 43.3128C139.574 43.6108 140.683 43.5549 141.383 44.2999C142.219 45.1753 142.238 46.4419 142.102 47.5408C141.927 48.4162 141.402 49.3475 140.43 49.5711C139.497 49.7946 138.563 49.9436 137.688 50.3161C136.269 50.8562 134.627 51.9673 133.469 52.0855C132.164 52.2912 132.847 51.0984 132.847 51.0984L133.138 51.51L132.822 51.9248L134.174 51.7848C134.174 51.7848 133.98 52.4383 131.127 52.1042C128.961 51.51 126.742 50.7631 124.545 50.8004C122.271 50.8376 120.015 51.3591 117.954 52.2718C113.483 53.9668 109.866 57.4498 107.864 61.622C106.775 63.9502 106.095 66.4647 105.997 69.0165C105.92 73.3935 107.3 77.8451 110.1 81.3282C111.441 83.1908 113.249 84.7181 115.194 85.9846C119.315 88.7599 124.584 89.7843 129.562 89.2069C135.628 88.5178 141.305 85.1837 144.707 80.3224C146.982 77.2864 148.603 73.6357 148.895 69.9291C149.245 66.9862 148.72 64.0061 147.767 61.2122C147.029 58.9212 145.368 56.8351 143.871 54.9353C143.113 53.9295 142.16 53.11 141.266 52.2346C143.055 53.4825 144.532 55.0843 145.777 56.8351C148.032 59.8898 149.354 63.5218 149.84 67.2284C149.957 69.5566 150.034 71.9221 149.471 74.1945C148.518 78.8696 145.952 83.2094 142.335 86.4689C140.566 88.2011 138.388 89.4491 136.172 90.5853C134.033 91.5911 131.72 92.3175 129.348 92.5968C124.507 93.3791 119.413 92.7645 114.941 90.7901C114.008 90.3431 113.113 89.8216 112.199 89.3559C108.603 87.214 105.511 84.2338 103.411 80.7135C101.526 77.3236 100.126 73.6171 100.009 69.7801C100.028 67.9175 99.8924 66.055 100.262 64.211C101.253 58.6046 104.17 53.2962 108.603 49.4965C110.994 47.3359 113.852 45.7155 116.885 44.5421C119.413 43.499 122.135 43.0334 124.856 42.754Z" fill="#4B99CC"/>
</g>
</g>
<defs>
<clipPath id="clip0_509_15">
<rect width="409" height="144" fill="white"/>
</clipPath>
<clipPath id="clip1_509_15">
<rect width="50" height="52" fill="white" transform="translate(100 41)"/>
</clipPath>
</defs>
</svg>
