<svg width="154" height="164" viewBox="0 0 154 164" fill="none" xmlns="http://www.w3.org/2000/svg">
<path d="M76.4766 3.95672C82.8174 3.24375 86.8022 3.41442 94.083 0.587404C96.7327 0.0200643 96.4362 0.178139 98.6644 0.0200652C100.745 -0.127515 103.295 0.587404 103.295 0.587404C108.619 2.66691 113.505 3.95672 118.948 5.73915C121.76 6.68978 125.169 6.51154 127.323 8.88811C129.895 11.6806 129.955 15.7207 129.536 19.2262C128.998 22.0187 127.383 24.9894 124.392 25.7023C121.52 26.4153 118.649 26.8906 115.957 28.0789C111.59 29.8019 107.583 32.4756 102.976 33.7233C101.488 34.1266 99.7293 34.2588 98.2434 34.2588C96.3118 34.2588 94.9607 33.7827 94.9607 33.7827C89.031 32.4879 82.2791 29.5049 75.5195 29.6237C68.5207 29.7425 61.5817 31.4061 55.2408 34.3174C41.4824 39.7241 30.3561 50.8346 24.1947 64.1434C20.8448 71.5702 18.7512 79.5911 18.4521 87.7308C18.2128 101.693 22.4599 115.893 31.0739 127.004C35.2014 132.945 40.7646 137.817 46.7465 141.857C59.4282 150.71 75.6391 153.978 90.9528 152.136C109.616 149.938 127.084 139.302 137.552 123.795C144.551 114.111 148.439 102.466 149.336 90.6422C150.413 81.2547 148.798 71.7484 145.867 62.8363C143.594 55.5283 139.586 48.8739 134.98 42.8137C132.647 39.6053 129.716 36.9911 126.964 34.1986C132.467 38.1793 137.014 43.289 140.842 48.8739C147.781 58.6179 151.849 70.2036 153.344 82.0271C153.911 86.5105 154.481 95.509 153.344 102.42C150.413 117.333 141.38 133.005 130.254 143.402C124.81 148.928 118.111 152.908 111.291 156.533C104.711 159.741 97.5928 162.058 90.2948 162.949C75.3999 165.445 59.7273 163.484 45.9689 157.186C43.0975 155.76 40.3459 154.097 37.5344 152.611C26.4678 145.779 16.9566 136.272 10.4961 125.043C4.69366 114.23 0.386684 102.406 0.027769 90.1668C0.0875881 84.2254 -0.331146 78.284 0.805418 72.402C3.85619 54.5182 12.8291 37.5852 26.4678 25.4647C33.8256 18.5726 42.619 13.4036 51.9508 9.66049C59.7273 6.33329 68.1019 4.84794 76.4766 3.95672Z" fill="#4B99CC"/>
</svg>
