<svg width="548" height="569" viewBox="0 0 548 569" fill="none" xmlns="http://www.w3.org/2000/svg">
<path d="M272.427 19.1925C295.014 16.7468 307.627 7.25189 329.575 1.5452C336.456 -0.243878 350.736 0.0127541 350.736 0.0127541C350.736 0.0127541 361.003 0.0264357 366.825 1.54519C385.79 8.67854 404.329 19.1925 423.72 25.3068C433.735 28.5678 445.882 27.9564 453.553 36.1088C462.716 45.6879 462.929 59.547 461.437 71.5718C459.519 81.1509 453.766 91.3414 443.111 93.7871C432.883 96.2328 422.655 97.8633 413.066 101.939C397.51 107.85 379.507 120.008 366.825 121.301C352.513 123.551 360.007 110.5 360.007 110.5L363.19 115.004L359.729 119.542L374.542 118.01C374.542 118.01 372.426 125.161 341.15 121.505C317.408 115.004 293.097 106.831 269.018 107.239C244.086 107.646 219.368 113.353 196.78 123.34C147.77 141.886 108.135 179.999 86.187 225.652C74.254 251.128 66.7958 278.643 65.7304 306.565C64.878 354.46 80.0074 403.171 110.692 441.283C125.395 461.664 145.213 478.377 166.522 492.236C211.697 522.603 269.444 533.813 323.995 527.495C390.478 519.954 452.7 483.472 489.991 430.277C514.922 397.056 532.694 357.11 535.891 316.551C539.726 284.349 533.973 251.74 523.531 221.168C515.434 196.1 497.236 173.273 480.828 152.484C472.518 141.479 462.076 132.511 452.274 122.932C471.878 136.587 488.073 154.115 501.711 173.273C526.429 206.698 540.919 246.441 546.247 286.999C547.525 312.475 548.378 338.359 542.198 363.224C531.757 414.38 503.629 461.868 463.994 497.535C444.603 516.489 420.737 530.145 396.445 542.577C373.005 553.583 347.647 561.531 321.651 564.589C268.591 573.149 212.762 566.423 163.751 544.819C153.523 539.927 143.721 534.221 133.706 529.126C94.2843 505.687 60.4032 473.078 37.3895 434.558C16.7199 397.464 1.37745 356.906 0.0989194 314.921C0.312009 294.54 -1.17962 274.159 2.86908 253.982C13.7366 192.635 45.7 134.549 94.2843 92.9719C120.494 69.3299 151.818 51.5983 185.06 38.7583C212.762 27.3449 242.594 22.2497 272.427 19.1925Z" fill="#4B99CC"/>
</svg>
